<?xml version="1.0" encoding="utf-8"?>
<!-- Generator: Adobe Illustrator 19.0.0, SVG Export Plug-In . SVG Version: 6.00 Build 0)  -->
<svg version="1.1" id="图层_1" xmlns="http://www.w3.org/2000/svg" xmlns:xlink="http://www.w3.org/1999/xlink" x="0px" y="0px"
	 viewBox="0 0 16.002 11.873" style="enable-background:new 0 0 16.002 11.873;" xml:space="preserve">
<g>
	<path d="M15.998,9.158c0,0.444-0.42,0.864-0.863,0.864c-0.568,0-0.905,0.275-1.39,0.716s-1.135,1.135-2.188,1.135
		s-1.706-0.695-2.188-1.135C8.884,10.294,8.567,10.022,8,10.022c-0.568,0-0.884,0.275-1.369,0.716s-1.135,1.135-2.188,1.135
		s-1.706-0.695-2.188-1.135c-0.485-0.444-0.802-0.716-1.369-0.716c-0.444,0-0.863-0.399-0.863-0.864s0.42-0.863,0.863-0.843
		c1.18,0,1.999,0.674,2.525,1.159s0.802,0.695,1.053,0.695c0.251,0,0.506-0.21,1.032-0.695s1.349-1.159,2.525-1.159
		s1.978,0.674,2.525,1.159c0.526,0.485,0.802,0.695,1.053,0.695s0.506-0.21,1.032-0.695s1.349-1.159,2.525-1.159
		C15.579,8.294,15.998,8.717,15.998,9.158z M0.861,1.706c0.568,0,0.884,0.251,1.369,0.695s1.135,1.135,2.188,1.135
		c0.062,0,0.127,0,0.189,0C5.553,3.453,6.145,2.82,6.606,2.401c0.42-0.378,0.716-0.633,1.18-0.695c0.062,0,0.127-0.021,0.21-0.021
		c0.568,0,0.884,0.251,1.369,0.695c0.127,0.107,0.251,0.23,0.399,0.378c0.444,0.378,0.991,0.777,1.789,0.777
		c0.062,0,0.127,0,0.189,0c0.946-0.083,1.538-0.716,1.999-1.135c0.42-0.378,0.716-0.633,1.18-0.695c0.062,0,0.127-0.021,0.21-0.021
		c0.107,0,0.23-0.021,0.316-0.062c0.041-0.021,0.107-0.041,0.148-0.083c0.23-0.148,0.399-0.42,0.399-0.695
		c0-0.107-0.021-0.23-0.062-0.317l0,0c-0.041-0.107-0.107-0.189-0.189-0.275c-0.041-0.041-0.083-0.083-0.127-0.107
		c-0.041-0.021-0.083-0.062-0.148-0.083c-0.062-0.021-0.107-0.041-0.169-0.041C15.237,0,15.192,0,15.13,0s-0.148,0-0.21,0
		c-1.053,0.083-1.81,0.674-2.315,1.135c-0.464,0.42-0.716,0.654-0.946,0.695c-0.041,0-0.062,0.021-0.083,0.021
		c-0.062,0-0.127-0.021-0.189-0.041c-0.127-0.062-0.296-0.169-0.485-0.358c-0.107-0.083-0.23-0.189-0.358-0.317
		C10.018,0.65,9.195,0,8.019,0c-0.062,0-0.148,0-0.21,0c-1.053,0.083-1.81,0.674-2.315,1.135C5.03,1.555,4.778,1.789,4.548,1.83
		c-0.041,0-0.062,0.021-0.083,0.021c-0.062,0-0.127-0.021-0.189-0.041s-0.148-0.083-0.23-0.127C3.877,1.576,3.688,1.387,3.413,1.157
		C2.887,0.672,2.064,0.022,0.888,0.022c-0.021,0-0.062,0-0.083,0l0,0C0.361,0.043-0.038,0.466,0.003,0.906
		C-0.023,1.348,0.417,1.727,0.861,1.706z M15.114,4.149c-0.062,0-0.148,0-0.21,0c-1.053,0.083-1.81,0.695-2.315,1.135
		c-0.464,0.42-0.716,0.654-0.946,0.695C11.602,5.979,11.581,6,11.56,6c-0.083,0-0.189-0.041-0.296-0.107
		c-0.189-0.107-0.42-0.296-0.736-0.609c-0.526-0.485-1.349-1.159-2.525-1.159c-0.062,0-0.148,0-0.21,0
		C6.74,4.208,5.983,4.82,5.478,5.26C5.014,5.68,4.762,5.914,4.532,5.955c-0.041,0-0.062,0.021-0.083,0.021
		c-0.083,0-0.189-0.041-0.296-0.107C4.112,5.848,4.07,5.828,4.026,5.807C3.858,5.7,3.668,5.511,3.393,5.28
		C2.867,4.795,2.044,4.121,0.868,4.121c-0.444,0-0.863,0.399-0.863,0.863s0.42,0.863,0.863,0.843c0.568,0,0.884,0.275,1.369,0.716
		c0.485,0.444,1.135,1.135,2.188,1.135c0.062,0,0.127,0,0.189,0C5.56,7.595,6.152,6.962,6.613,6.543
		C6.909,6.268,7.16,6.058,7.435,5.955c0.062-0.021,0.107-0.041,0.169-0.062c0.062-0.021,0.127-0.021,0.189-0.041
		c0.062,0,0.127-0.021,0.21-0.021c0.568,0,0.884,0.275,1.369,0.716c0.127,0.107,0.251,0.23,0.399,0.378
		c0.444,0.378,0.991,0.777,1.789,0.777c0.062,0,0.127,0,0.189,0c0.946-0.083,1.538-0.716,1.999-1.135
		c0.296-0.275,0.547-0.485,0.822-0.588c0.062-0.021,0.107-0.041,0.169-0.062s0.127-0.021,0.189-0.041
		c0.062,0,0.127-0.021,0.21-0.021c0.444,0,0.864-0.399,0.864-0.843C15.998,4.568,15.579,4.149,15.114,4.149z"/>
</g>
</svg>
