<?xml version="1.0" encoding="utf-8"?>
<!-- Generator: Adobe Illustrator 19.0.0, SVG Export Plug-In . SVG Version: 6.00 Build 0)  -->
<svg version="1.1" id="图层_1" xmlns="http://www.w3.org/2000/svg" xmlns:xlink="http://www.w3.org/1999/xlink" x="0px" y="0px"
	 viewBox="0 0 10 5.978" style="enable-background:new 0 0 10 5.978;" xml:space="preserve">
<style type="text/css">
	.st0{fill:none;}
</style>
<rect class="st0" width="10" height="5.978"/>
<path d="M10,0.737c0,0.189-0.072,0.369-0.202,0.506L5.537,5.748c-0.139,0.146-0.334,0.23-0.535,0.23H5.001
	c-0.204,0-0.394-0.082-0.535-0.23L0.201,1.244C-0.078,0.949-0.065,0.482,0.23,0.202C0.368,0.072,0.547,0,0.736,0
	c0.204,0,0.395,0.082,0.536,0.23l3.729,3.94l3.726-3.94C8.866,0.084,9.061,0,9.263,0C9.669,0,10,0.331,10,0.737z"/>
</svg>
