<?xml version="1.0" encoding="utf-8"?>
<!-- Generator: Adobe Illustrator 19.0.0, SVG Export Plug-In . SVG Version: 6.00 Build 0)  -->
<svg version="1.1" id="图层_1" xmlns="http://www.w3.org/2000/svg" xmlns:xlink="http://www.w3.org/1999/xlink" x="0px" y="0px"
	 viewBox="0 0 7.995 6.403" style="enable-background:new 0 0 7.995 6.403;" xml:space="preserve">
<g id="XMLID_3_">
	<path id="XMLID_12_" d="M7.995,0.65c0,0.145-0.04,0.28-0.14,0.396l-4.02,5.096c-0.02,0.029-0.05,0.058-0.08,0.077l-0.16,0.106
		c-0.1,0.059-0.2,0.078-0.31,0.078c-0.17,0-0.35-0.058-0.48-0.193l-2.61-2.553c-0.26-0.251-0.26-0.667,0-0.919
		c0.13-0.126,0.3-0.184,0.47-0.184c0.18,0,0.35,0.058,0.48,0.193l2.08,2.021l3.57-4.516c0.22-0.28,0.64-0.338,0.94-0.116
		C7.905,0.263,7.995,0.456,7.995,0.65z"/>
</g>
</svg>
