<?xml version="1.0" encoding="utf-8"?>
<!-- Generator: Adobe Illustrator 19.0.0, SVG Export Plug-In . SVG Version: 6.00 Build 0)  -->
<svg version="1.1" id="图层_1" xmlns="http://www.w3.org/2000/svg" xmlns:xlink="http://www.w3.org/1999/xlink" x="0px" y="0px"
	 viewBox="0 0 12 12.355" style="enable-background:new 0 0 12 12.355;" xml:space="preserve">
<g>
	<path d="M2.021,10.323c-0.513,0-0.905-0.392-0.905-0.905v-0.03l0.09-2.322c0.03-0.452,0.211-0.875,0.543-1.206l5.097-5.067
		c1.056-1.056,2.775-1.056,3.831,0c1.056,1.056,1.056,2.775,0,3.831L5.61,9.69c-0.332,0.332-0.754,0.513-1.207,0.543l-2.322,0.09
		H2.021z M8.747,1.184c-0.392,0-0.784,0.151-1.056,0.452L2.624,6.704C2.503,6.824,2.443,6.945,2.443,7.096l-0.09,2.021l1.991-0.091
		c0.151,0,0.302-0.06,0.392-0.181l5.067-5.067c0.603-0.603,0.603-1.538,0-2.142C9.531,1.365,9.139,1.184,8.747,1.184L8.747,1.184z
		 M11.333,12.355H0.667C0.3,12.355,0,12.084,0,11.752c0-0.332,0.3-0.603,0.667-0.603h10.667C11.7,11.149,12,11.42,12,11.752
		C12,12.084,11.7,12.355,11.333,12.355L11.333,12.355z M10.255,12.133"/>
	<path d="M7.631,2.903c0,0.5,0.405,0.905,0.905,0.905c0.5,0,0.905-0.405,0.905-0.905c0-0.5-0.405-0.905-0.905-0.905
		C8.036,1.998,7.631,2.403,7.631,2.903L7.631,2.903z M7.631,2.903"/>
</g>
</svg>
