<?xml version="1.0" encoding="utf-8"?>
<!-- Generator: Adobe Illustrator 19.0.0, SVG Export Plug-In . SVG Version: 6.00 Build 0)  -->
<svg version="1.1" id="隔离模式" xmlns="http://www.w3.org/2000/svg" xmlns:xlink="http://www.w3.org/1999/xlink" x="0px"
	 y="0px" viewBox="3.8 3.2 12 13.1" style="enable-background:new 3.8 3.2 12 13.1;" xml:space="preserve">
<style type="text/css">
	.st0{fill:#333333;}
	.st1{fill:#E6493B;}
</style>
<g>
	<g>
		<path class="st0" d="M11.5,13.8H5.2C5.6,13.1,6,12,6,11.3V8.7c0-1.8,1.7-3.3,3.7-3.3c2,0,3.7,1.5,3.7,3.3v2.5
			c0,0.7,0.5,1.8,0.8,2.6L11.5,13.8L11.5,13.8z M9.8,15.4c-0.4,0-0.8-0.2-1-0.5h2C10.5,15.1,10.2,15.4,9.8,15.4L9.8,15.4z
			 M15.7,14.1L15.7,14.1c-0.3-0.5-1-2.1-1-2.8V8.7c0-2.4-2.2-4.3-4.9-4.3s-4.9,2-4.9,4.3v2.6c0,0.6-0.6,2-1.1,2.8l0,0
			c-0.1,0.1-0.1,0.2-0.1,0.3c0,0.3,0.3,0.5,0.6,0.5h3.2c0.3,0.9,1.1,1.5,2.2,1.5s1.9-0.7,2.2-1.5h3.2c0.3,0,0.6-0.2,0.6-0.5
			C15.7,14.2,15.7,14.1,15.7,14.1L15.7,14.1z"/>
	</g>
	<circle class="st1" cx="12.2" cy="5.2" r="4"/>
</g>
</svg>
