<?xml version="1.0" encoding="utf-8"?>
<!-- Generator: Adobe Illustrator 19.0.0, SVG Export Plug-In . SVG Version: 6.00 Build 0)  -->
<svg version="1.1" id="图层_1" xmlns="http://www.w3.org/2000/svg" xmlns:xlink="http://www.w3.org/1999/xlink" x="0px" y="0px"
	 viewBox="0 0 18 18" style="enable-background:new 0 0 18 18;" xml:space="preserve">
<g>
	<path d="M17.987,9.257C17.99,9.171,18,9.087,18,9c0-1.077-0.189-2.128-0.555-3.118c-0.128-0.326-0.493-0.489-0.821-0.368
		c-0.328,0.121-0.499,0.482-0.385,0.813c0.277,0.749,0.428,1.54,0.461,2.351h-1.272c-0.355,0-0.643,0.288-0.643,0.643
		c0,0.355,0.288,0.643,0.643,0.643h1.219c-0.449,3.595-3.366,6.417-7.005,6.718v-1.253c0-0.355-0.288-0.643-0.643-0.643
		c-0.355,0-0.643,0.288-0.643,0.643v1.253c-3.639-0.301-6.556-3.123-7.005-6.717h1.219c0.355,0,0.643-0.288,0.643-0.643
		c0-0.355-0.288-0.643-0.643-0.643h-1.27c0.161-3.896,3.203-7.042,7.055-7.36v1.253c0,0.355,0.288,0.643,0.643,0.643
		c0.355,0,0.643-0.288,0.643-0.643V1.319c0.862,0.071,1.697,0.278,2.478,0.624c0.324,0.144,0.704-0.003,0.848-0.327
		c0.144-0.324-0.003-0.704-0.327-0.848C11.495,0.26,10.254-0.002,9,0C4.029,0,0,4.029,0,9c0,0.087,0.01,0.171,0.013,0.257
		C0.011,9.28,0,9.299,0,9.321c0,0.038,0.015,0.071,0.022,0.107C0.247,14.199,4.174,18,9,18c4.826,0,8.753-3.801,8.978-8.571
		C17.985,9.393,18,9.359,18,9.321C18,9.299,17.989,9.28,17.987,9.257L17.987,9.257z M17.987,9.257"/>
	<path d="M14.275,5.445"/>
	<circle cx="9.116" cy="9.271" r="2.838"/>
	<path d="M9.331,8.933L9.331,8.933C9.022,8.595,9.046,8.07,9.384,7.762l3.637-3.322c0.338-0.309,0.862-0.285,1.171,0.053l0,0
		c0.309,0.338,0.285,0.862-0.053,1.171l-3.637,3.322C10.163,9.294,9.639,9.27,9.331,8.933z"/>
</g>
</svg>
