<?xml version="1.0" encoding="utf-8"?>
<!-- Generator: Adobe Illustrator 19.0.0, SVG Export Plug-In . SVG Version: 6.00 Build 0)  -->
<svg version="1.1" id="图层_1" xmlns="http://www.w3.org/2000/svg" xmlns:xlink="http://www.w3.org/1999/xlink" x="0px" y="0px"
	 viewBox="0 0 12 12" style="enable-background:new 0 0 12 12;" xml:space="preserve">
<g>
	<g>
		<path d="M6,0c0.36,0,0.6,0.24,0.6,0.6v5.301c0,0.36-0.24,0.6-0.6,0.6c-0.36,0-0.6-0.24-0.6-0.6V0.6C5.4,0.24,5.64,0,6,0L6,0z M6,0
			"/>
		<path d="M6,12c-3.3,0-6-2.7-6-6c0-1.86,0.84-3.54,2.28-4.68c0.24-0.18,0.66-0.18,0.84,0.12C3.3,1.68,3.24,2.04,3,2.22
			C1.86,3.18,1.2,4.56,1.2,6c0,2.64,2.16,4.8,4.8,4.8c2.64,0,4.8-2.16,4.8-4.8c0-1.5-0.66-2.82-1.8-3.78
			c-0.24-0.18-0.3-0.6-0.12-0.84c0.18-0.24,0.6-0.3,0.84-0.12C11.16,2.46,12,4.14,12,6C12,9.3,9.3,12,6,12L6,12z M6,12"/>
	</g>
</g>
</svg>
