<?xml version="1.0" encoding="utf-8"?>
<!-- Generator: Adobe Illustrator 19.0.0, SVG Export Plug-In . SVG Version: 6.00 Build 0)  -->
<svg version="1.1" id="图层_1" xmlns="http://www.w3.org/2000/svg" xmlns:xlink="http://www.w3.org/1999/xlink" x="0px" y="0px"
	 viewBox="0 0 18 12.368" style="enable-background:new 0 0 18 12.368;" xml:space="preserve">
<g id="图层_1_1_">
	<g>
		<path d="M2.328,6.666h0.058v1.127c0,0.24,0.178,0.451,0.418,0.473c0.275,0.026,0.506-0.19,0.506-0.46V6.665h1.557V8.83
			c0,0.254,0.199,0.473,0.453,0.477c0.259,0.005,0.471-0.204,0.471-0.462v-2.18h1.543v1.127c0,0.24,0.178,0.451,0.417,0.473
			c0.275,0.026,0.507-0.19,0.507-0.46V6.664h1.547v1.141c0,0.27,0.231,0.486,0.506,0.46c0.239-0.022,0.418-0.233,0.418-0.473V6.665
			h1.529V8.83c0,0.254,0.199,0.473,0.453,0.477c0.259,0.005,0.471-0.204,0.471-0.462v-2.18h1.543V7.79
			c0,0.254,0.199,0.473,0.453,0.477c0.259,0.005,0.471-0.204,0.471-0.462V6.664h0.031h0.014h1.557C17.665,6.664,18,6.999,18,7.413
			v4.206c0,0.414-0.335,0.749-0.749,0.749H0.749C0.335,12.368,0,12.033,0,11.619V7.413c0-0.414,0.335-0.749,0.749-0.749h1.445h0.134
			V6.666z"/>
		<path d="M17.652,2.337L15.097,3.81c-0.071,0.041-0.151,0.062-0.233,0.062c-0.255,0-0.461-0.209-0.46-0.464V2.397H3.605v1.011
			c0,0.082-0.021,0.162-0.062,0.233c-0.127,0.221-0.41,0.296-0.63,0.169L0.358,2.337C0.289,2.297,0.23,2.239,0.19,2.169
			C0.062,1.948,0.137,1.666,0.358,1.538l2.485-1.427C2.927,0.04,3.033,0,3.143,0c0.255,0,0.462,0.207,0.462,0.462v1.016h10.799
			V0.467c0-0.082,0.021-0.162,0.062-0.233c0.127-0.221,0.41-0.296,0.63-0.169l2.555,1.473c0.069,0.04,0.128,0.098,0.168,0.168
			C17.948,1.927,17.873,2.209,17.652,2.337z"/>
	</g>
</g>
<g id="图层_2">
</g>
</svg>
