<?xml version="1.0" encoding="utf-8"?>
<!-- Generator: Adobe Illustrator 19.0.0, SVG Export Plug-In . SVG Version: 6.00 Build 0)  -->
<svg version="1.1" id="图层_1" xmlns="http://www.w3.org/2000/svg" xmlns:xlink="http://www.w3.org/1999/xlink" x="0px" y="0px"
	 viewBox="0 0 17 17.761" style="enable-background:new 0 0 17 17.761;" xml:space="preserve">
<g>
	<g>
		<g>
			<path d="M16.743,16.259l-3.323-3.322c1.312-1.425,2.033-3.271,2.032-5.211c0-2.064-0.804-4.004-2.263-5.463
				C11.73,0.804,9.79,0,7.726,0S3.722,0.804,2.263,2.263C0.804,3.722,0,5.662,0,7.726s0.804,4.004,2.263,5.463
				s3.399,2.263,5.463,2.263h0.005c1.567,0,3.072-0.469,4.359-1.357l3.408,3.409c0.171,0.171,0.397,0.257,0.622,0.257
				c0.226,0,0.451-0.086,0.623-0.257C17.086,17.161,17.086,16.603,16.743,16.259z M7.726,13.693c-3.29,0-5.967-2.677-5.967-5.967
				s2.677-5.967,5.967-5.967s5.967,2.677,5.967,5.967S11.016,13.693,7.726,13.693z"/>
		</g>
	</g>
</g>
</svg>
