<?xml version="1.0" encoding="utf-8"?>
<!-- Generator: Adobe Illustrator 19.0.0, SVG Export Plug-In . SVG Version: 6.00 Build 0)  -->
<svg version="1.1" id="图层_1" xmlns="http://www.w3.org/2000/svg" xmlns:xlink="http://www.w3.org/1999/xlink" x="0px" y="0px"
	 viewBox="0 0 16 15.6" style="enable-background:new 0 0 16 15.6;" xml:space="preserve">
<style type="text/css">
	.st0{clip-path:url(#SVGID_2_);fill:#333333;}
	.st1{fill:#333333;}
</style>
<g>
	<g>
		<defs>
			<rect id="SVGID_1_" width="16" height="15.6"/>
		</defs>
		<clipPath id="SVGID_2_">
			<use xlink:href="#SVGID_1_"  style="overflow:visible;"/>
		</clipPath>
		<path class="st0" d="M14.5,9.1c-0.8,0.1-1.5,0.6-1.9,1.3c-0.4,0.7-0.5,1.5-0.2,2.3c-0.7,0.6-1.5,1.1-2.4,1.4c-0.5-0.6-1.3-1-2.1-1
			c-0.8,0-1.6,0.4-2.1,1c-0.9-0.3-1.7-0.8-2.4-1.4c0.3-0.8,0.2-1.6-0.2-2.3C3,9.7,2.3,9.3,1.5,9.1c-0.2-0.9-0.2-1.8,0-2.7
			C2.3,6.3,3,5.8,3.4,5.1c0.4-0.7,0.5-1.5,0.2-2.3C4.2,2.2,5,1.7,5.9,1.5c0.5,0.6,1.3,1,2.1,1c0.8,0,1.6-0.4,2.1-1
			c0.9,0.3,1.7,0.8,2.4,1.4c-0.3,0.8-0.2,1.6,0.2,2.3c0.4,0.7,1.1,1.2,1.9,1.3C14.7,7.3,14.7,8.2,14.5,9.1 M15.7,5.6
			c-0.1-0.3-0.4-0.5-0.7-0.5c-0.5,0-1-0.2-1.2-0.7c-0.3-0.4-0.2-1,0-1.4c0.2-0.3,0.1-0.6-0.1-0.8c-1-1.1-2.3-1.8-3.8-2.2
			C9.6,0,9.3,0.1,9.2,0.4C9,0.8,8.5,1.1,8,1.1c-0.5,0-1-0.3-1.2-0.7C6.7,0.1,6.3,0,6,0C4.6,0.4,3.3,1.1,2.3,2.2C2,2.4,2,2.8,2.2,3
			c0.3,0.4,0.3,1,0,1.4C2,4.9,1.5,5.2,1,5.1c-0.3,0-0.6,0.2-0.7,0.5C0.1,6.3,0,7,0,7.8C0,8.5,0.1,9.3,0.3,10
			c0.1,0.3,0.4,0.5,0.7,0.5c0.5,0,1,0.2,1.2,0.7c0.3,0.4,0.2,1,0,1.4C2,12.8,2,13.1,2.3,13.4c1,1.1,2.3,1.8,3.8,2.2
			c0.3,0.1,0.6-0.1,0.8-0.3C7,14.7,7.5,14.4,8,14.4c0.5,0,1,0.3,1.2,0.7c0.1,0.3,0.5,0.4,0.8,0.4c1.4-0.4,2.7-1.1,3.8-2.2
			c0.2-0.2,0.3-0.6,0.1-0.8c-0.3-0.4-0.3-1,0-1.4c0.3-0.4,0.7-0.7,1.2-0.7c0.3,0,0.6-0.2,0.7-0.5C15.9,9.3,16,8.5,16,7.8
			C16,7,15.9,6.3,15.7,5.6"/>
	</g>
	<path class="st1" d="M8,9.8c-1.1,0-2-0.9-2-2c0-1.1,0.9-2,2-2c1.1,0,2,0.9,2,2C10,8.9,9.1,9.8,8,9.8 M8,4.5c-1.8,0-3.3,1.5-3.3,3.3
		c0,1.8,1.5,3.3,3.3,3.3c1.8,0,3.3-1.5,3.3-3.3C11.3,5.9,9.8,4.5,8,4.5"/>
</g>
</svg>
