<?xml version="1.0" encoding="utf-8"?>
<!-- Generator: Adobe Illustrator 19.0.0, SVG Export Plug-In . SVG Version: 6.00 Build 0)  -->
<svg version="1.1" xmlns="http://www.w3.org/2000/svg" xmlns:xlink="http://www.w3.org/1999/xlink" x="0px" y="0px"
	 viewBox="0 0 10 26.678" style="enable-background:new 0 0 10 26.678;" xml:space="preserve">
<style type="text/css">
	.st0{opacity:0.9;}
</style>
<g id="图层_1">
	<g id="XMLID_2_">
		<path id="XMLID_1_" class="st0" d="M5,0C4.1,0,0,6.394,0,13.091l1.061,13.178c0.019,0.232,0.212,0.41,0.444,0.41h6.989
			c0.232,0,0.426-0.178,0.444-0.41L10,13.091C10,6.394,5.838,0,5,0z"/>
		<path id="XMLID_4_" d="M4.989,1.248C6.127,2.607,8.986,7.574,9,13.051L7.983,25.678H2.017L1,13.051
			C1.014,7.504,3.857,2.581,4.989,1.248 M5,0C4.1,0,0,6.394,0,13.091l1.061,13.178c0.019,0.232,0.212,0.41,0.444,0.41h6.989
			c0.232,0,0.426-0.178,0.444-0.41L10,13.091C10,6.394,5.838,0,5,0L5,0z"/>
	</g>
</g>
<g id="图层_2">
</g>
</svg>
