<?xml version="1.0" encoding="utf-8"?>
<!-- Generator: Adobe Illustrator 19.0.0, SVG Export Plug-In . SVG Version: 6.00 Build 0)  -->
<svg version="1.1" id="图层_1" xmlns="http://www.w3.org/2000/svg" xmlns:xlink="http://www.w3.org/1999/xlink" x="0px" y="0px"
	 viewBox="0 0 16.7 24" style="enable-background:new 0 0 16.7 24;" xml:space="preserve">
<style type="text/css">
	.st0{fill:#333333;}
	.st1{fill:#EA3324;}
	.st2{fill:#FFFFFF;}
</style>
<path id="XMLID_5_" class="st0" d="M14,16.9c-0.5-1.2-1-2.5-1-3.4V9.4c0-2.9-2.8-5.4-6-5.4s-6,2.4-6,5.4v4.2c0,0.9-0.4,2.1-0.9,3.2
	c-0.2,0.4,0.1,0.9,0.6,0.9h3.2c0.4,1.4,1.6,2.4,3.1,2.4c1.5,0,2.8-1,3.1-2.4h3.2C13.8,17.7,14.1,17.3,14,16.9z M7,18.8
	c-0.8,0-1.5-0.5-1.8-1.1h3.5C8.4,18.4,7.8,18.8,7,18.8z M1.6,16.4c0.3-0.8,0.6-1.8,0.6-2.8V9.4c0-2.2,2.2-4.1,4.7-4.1
	s4.7,1.9,4.7,4.1v4.1c0,0.9,0.3,1.9,0.7,2.9H1.6z"/>
<g id="XMLID_52_">
	<circle id="XMLID_55_" class="st1" cx="10.7" cy="6" r="4" >
		
	</circle>
	<path id="XMLID_51_" class="st2" d="M10.7,2c2.2,0,4,1.8,4,4s-1.8,4-4,4s-4-1.8-4-4S8.5,2,10.7,2 M10.7,0c-3.3,0-6,2.7-6,6
		s2.7,6,6,6s6-2.7,6-6S14,0,10.7,0L10.7,0z"/>
	<animate attributeName="opacity" values="1;0" begin="0s" dur=".8s" repeatCount="indefinite"/>
</g>
</svg>
