<?xml version="1.0" encoding="utf-8"?>
<!-- Generator: Adobe Illustrator 19.0.0, SVG Export Plug-In . SVG Version: 6.00 Build 0)  -->
<svg version="1.1" id="图层_1" xmlns="http://www.w3.org/2000/svg" xmlns:xlink="http://www.w3.org/1999/xlink" x="0px" y="0px"
	 viewBox="0 0 17 16.302" style="enable-background:new 0 0 17 16.302;" xml:space="preserve">
<g>
	<g>
		<path d="M11.583,2.107c0.645,0.326,1.235,0.725,1.763,1.186c1.139,0.912,1.955,2.144,2.279,3.538
			c0.176,0.616,0.264,1.253,0.264,1.893c0,4.187-3.762,7.579-8.403,7.578C4.222,16.304,1.393,14.627,0,12.176
			c1.327,1.245,3.192,2.021,5.258,2.021c0.052,0,0.106,0,0.159-0.001c-0.645-0.326-1.235-0.725-1.763-1.186
			c-1.138-0.913-1.955-2.144-2.279-3.538C1.2,8.855,1.112,8.218,1.112,7.578c0-4.187,3.762-7.579,8.403-7.578
			C12.778-0.001,15.607,1.675,17,4.126c-1.327-1.245-3.192-2.021-5.258-2.021C11.689,2.107,11.636,2.106,11.583,2.107L11.583,2.107z
			 M8.4,5.266c-1.654,0-2.995,1.341-2.996,2.996c0,1.654,1.341,2.995,2.996,2.996c1.654,0,2.995-1.341,2.996-2.996
			C11.396,6.608,10.055,5.267,8.4,5.266L8.4,5.266z M8.4,5.266"/>
	</g>
</g>
</svg>
