<?xml version="1.0" encoding="utf-8"?>
<!-- Generator: Adobe Illustrator 19.0.0, SVG Export Plug-In . SVG Version: 6.00 Build 0)  -->
<svg version="1.1" id="图层_1" xmlns="http://www.w3.org/2000/svg" xmlns:xlink="http://www.w3.org/1999/xlink" x="0px" y="0px"
	 viewBox="0 0 10 5.978" style="enable-background:new 0 0 10 5.978;" xml:space="preserve">
<style type="text/css">
	.st0{fill:none;}
</style>
<rect class="st0" width="10" height="5.978"/>
<path d="M0,5.241c0-0.189,0.072-0.369,0.202-0.506L4.463,0.23C4.602,0.084,4.797,0,4.998,0h0.001c0.204,0,0.394,0.082,0.535,0.23
	l4.265,4.504c0.279,0.295,0.266,0.762-0.029,1.042c-0.138,0.13-0.318,0.202-0.507,0.202c-0.204,0-0.395-0.082-0.536-0.23
	l-3.729-3.94l-3.726,3.94c-0.138,0.147-0.334,0.23-0.535,0.23C0.331,5.978,0,5.647,0,5.241z"/>
</svg>
