<?xml version="1.0" encoding="utf-8"?>
<!-- Generator: Adobe Illustrator 19.0.0, SVG Export Plug-In . SVG Version: 6.00 Build 0)  -->
<svg version="1.1" id="图层_1" xmlns="http://www.w3.org/2000/svg" xmlns:xlink="http://www.w3.org/1999/xlink" x="0px" y="0px"
	 viewBox="0 0 16 12.254" style="enable-background:new 0 0 16 12.254;" xml:space="preserve">
<g>
	<g>
		<g>
			<path d="M15.807,5.254c-0.044-0.1-0.568-1.275-1.678-2.487C12.885,1.407,10.904,0,8.002,0S3.118,1.409,1.875,2.766
				c-1.108,1.21-1.63,2.376-1.664,2.457c-0.271,0.53-0.278,1.296-0.043,1.762c0.01,0.027,0.517,1.297,1.707,2.583
				c1.234,1.334,3.201,2.686,6.127,2.686c2.925,0,4.895-1.355,6.127-2.685c1.189-1.283,1.692-2.545,1.692-2.548
				C16.071,6.491,16.053,5.709,15.807,5.254 M5.279,6.976V5.447C5.28,3.944,6.498,2.725,8.002,2.723
				c1.502,0,2.723,1.222,2.723,2.724v1.529C10.724,8.48,9.506,9.699,8.002,9.701C6.5,9.701,5.279,8.479,5.279,6.976"/>
		</g>
	</g>
	<path d="M6.367,6.847V5.406C6.368,4.504,7.098,3.774,8,3.772c0.9,0,1.633,0.733,1.633,1.634v1.441C9.632,7.749,8.902,8.48,8,8.481
		C7.1,8.481,6.367,7.748,6.367,6.847"/>
</g>
</svg>
